<svg width="824" height="263" viewBox="0 0 824 263" fill="none" xmlns="http://www.w3.org/2000/svg">
<path d="M144.116 199.758L213.739 130.393H119.535V195.012L124.846 199.758H144.116Z" fill="#283D4F"></path>
<path d="M144.981 38.9535H193.367C186.616 24.2674 179.993 14.0151 176.715 9.30212L144.981 38.9535Z" fill="#269497"></path>
<path d="M176.714 9.30236C175.927 8.17438 175.335 7.35911 174.977 6.87888C174.732 6.54942 174.374 6.32048 173.972 6.23671C108.683 -7.2097 45.2428 5.04731 37.9891 6.53825C37.548 6.6276 37.1627 6.89563 36.917 7.26976C30.0262 17.913 24.2858 28.4892 19.5394 38.9481H144.98L176.714 9.29678V9.30236Z" fill="#62D4C5"></path>
<path d="M142.709 221.831H122.065L82.1553 261.494C128.805 263.979 168.2 256.826 173.89 255.726C174.343 255.637 174.733 255.369 174.985 254.983L142.709 221.825V221.831Z" fill="#624DEF"></path>
<path d="M174.978 254.983C182.199 243.754 188.218 232.686 193.194 221.825H142.703L174.978 254.983Z" fill="#887BF3"></path>
<path d="M122.064 221.831H19.4455C27.3749 240.621 35.1144 252.638 36.9124 255.33C37.1581 255.698 37.5434 255.955 37.979 256.045C52.8773 259.071 67.8593 260.735 82.1545 261.495L122.064 221.831Z" fill="#355169"></path>
<path opacity="0.51" d="M57.0934 124.639C57.0655 126.555 57.0487 128.476 57.0431 130.391L57.0934 124.639Z" fill="#FF0000"></path>
<path d="M119.534 130.392H213.737C213.737 103.79 208.65 80.253 202.144 61.0271H119.115L119.534 130.392Z" fill="#269497"></path>
<path d="M57.0938 124.641L57.0491 130.392H119.535L119.116 61.0271L57.0938 124.641Z" fill="#62D4C5"></path>
<path d="M119.115 61.0271H61.3931L58.668 93.0461C57.7746 103.544 57.2497 114.092 57.0933 124.641L119.11 61.0271H119.115Z" fill="#FF794E"></path>
<path d="M144.117 199.758H202.029C210.472 175.088 213.739 151.752 213.739 130.393L144.117 199.758Z" fill="#624DEF"></path>
<path d="M119.535 195.011V199.757H124.846L119.535 195.011Z" fill="#62D4C5"></path>
<path d="M119.535 195.012V130.393H57.0491C57.0491 132.453 57.0547 134.514 57.077 136.575L119.535 195.017V195.012Z" fill="#269497"></path>
<path d="M57.0766 136.574C57.2106 148.127 57.7913 159.675 58.8132 171.161L61.354 199.757H119.54V195.017L57.0822 136.574H57.0766Z" fill="#62D4C5"></path>
<path d="M40.8326 130.392C40.8549 117.923 41.3966 105.454 42.452 93.0461L45.177 61.0271H10.8908C2.82745 85.3736 -0.171194 108.776 0.00749556 130.392H40.8326Z" fill="#FF794E"></path>
<path d="M0.00836754 130.393C0.226146 156.649 5.12337 180.275 11.3049 199.758H45.1388L42.598 171.162C41.3974 157.621 40.8055 144.007 40.8334 130.393H0.00836754Z" fill="#33B6B1"></path>
<path d="M132.7 211.176L144.109 199.757H202.021C202.021 199.757 197.185 213.521 193.193 221.83H142.701L132.7 211.176Z" fill="#887BF3"></path>
<path d="M142.708 221.831H122.064L132.702 211.177L142.708 221.831Z" fill="#624DEF"></path>
<path d="M578.097 65.3242L578.163 65.5039L593.195 106.239L608.813 65.5L608.881 65.3242H621.12L620.961 65.7041L587.626 145.589L587.556 145.758H575.322L575.481 145.377L586.483 119.049L565.125 65.7012L564.974 65.3242H578.097Z" fill="#283D4F" stroke="#283D4F" stroke-width="0.54975"></path>
<path d="M474.84 46.6841V88.604L494.078 65.4224L494.161 65.3238H510.499L510.074 65.7847L485.197 92.8169L510.074 119.752L510.5 120.214H494.559L494.476 120.119L474.84 97.3042V120.214H463.048V46.6841H474.84Z" fill="#283D4F" stroke="#283D4F" stroke-width="0.54975"></path>
<path d="M454.399 105.338C454.297 108.247 453.429 110.868 451.794 113.194C450.052 115.674 447.576 117.61 444.381 119.008C441.249 120.407 437.561 121.102 433.325 121.102C429.018 121.102 425.133 120.34 421.674 118.81L421.668 118.807C418.28 117.213 415.579 115.082 413.577 112.412L413.575 112.409V112.408C411.571 109.669 410.5 106.625 410.367 103.283L410.355 102.998H422.531L422.552 103.249C422.742 105.464 423.782 107.335 425.697 108.87C427.679 110.341 430.15 111.085 433.127 111.085C436.253 111.085 438.622 110.497 440.267 109.359C441.981 108.153 442.813 106.654 442.813 104.85C442.813 103.878 442.578 103.044 442.118 102.338C441.656 101.631 440.958 101.035 440.006 100.559L440.003 100.557C438.123 99.5847 435.087 98.5065 430.883 97.324V97.3231C426.802 96.2039 423.47 95.1161 420.892 94.0584C418.287 92.9897 416.017 91.3532 414.083 89.1531L414.08 89.1502C412.188 86.9195 411.253 83.9903 411.253 80.3914C411.253 77.4403 412.127 74.7539 413.87 72.3406C415.612 69.862 418.087 67.9272 421.281 66.5301L421.283 66.5291C424.544 65.1313 428.264 64.4363 432.437 64.4363C438.665 64.4364 443.697 66.0266 447.506 69.2342H447.505C451.383 72.3785 453.452 76.6943 453.718 82.1531L453.732 82.4422H441.947L441.926 82.1893C441.735 79.8257 440.781 77.9571 439.068 76.5613C437.355 75.1662 435.024 74.453 432.042 74.4529C429.112 74.4529 426.909 75.0083 425.396 76.0799C423.887 77.149 423.145 78.5465 423.145 80.2928C423.145 81.6635 423.64 82.8079 424.636 83.742C425.657 84.6994 426.906 85.4695 428.385 86.0496L429.65 86.4734C431.05 86.928 432.86 87.4753 435.078 88.116H435.077C439.027 89.1697 442.262 90.2583 444.778 91.3836H444.777C447.378 92.4519 449.614 94.0534 451.481 96.1873C453.374 98.3511 454.342 101.214 454.409 104.747V104.752L454.399 105.338Z" fill="#283D4F" stroke="#283D4F" stroke-width="0.54975"></path>
<path d="M402.072 65.3232V120.215H390.279V65.3232H402.072ZM396.274 43.7255C398.319 43.7255 400.066 44.444 401.499 45.8769C402.933 47.3115 403.65 49.0918 403.65 51.1992C403.65 53.3067 402.934 55.0877 401.499 56.5224C400.066 57.9553 398.319 58.6738 396.274 58.6738C394.167 58.6737 392.387 57.9569 390.952 56.5224C389.517 55.0877 388.801 53.3067 388.801 51.1992C388.801 49.0917 389.517 47.3116 390.952 45.8769C392.387 44.4422 394.167 43.7256 396.274 43.7255Z" fill="#283D4F" stroke="#283D4F" stroke-width="0.54975"></path>
<path d="M340.984 46.6841V71.1734C342.837 69.1085 345.11 67.4945 347.8 66.3326L347.802 66.3316C350.798 65.067 354.056 64.4361 357.574 64.4361C361.756 64.4361 365.484 65.3318 368.751 67.1314L369.368 67.48C372.41 69.2709 374.805 71.8238 376.553 75.1314L376.905 75.8023C378.604 79.1997 379.447 83.2314 379.447 87.8872V120.214H367.754V89.564C367.754 84.7421 366.548 81.1044 364.179 78.6079L364.177 78.606C361.806 76.0422 358.564 74.7495 354.418 74.7495C350.272 74.7496 346.996 76.0426 344.558 78.6089L344.557 78.6079C342.189 81.1044 340.984 84.7422 340.984 89.564V120.214H329.192V46.6841H340.984Z" fill="#283D4F" stroke="#283D4F" stroke-width="0.54975"></path>
<path d="M256.284 65.3242L256.337 65.5293L267.415 108.204L278.686 65.5283L278.74 65.3242H290.902L290.954 65.5312L301.736 107.984L312.71 65.5303L312.764 65.3242H324.396L324.285 65.6797L307.42 120.021L307.361 120.215H295.113L295.058 120.012L284.375 80.8447L273.695 120.012L273.639 120.215H261.392L261.332 120.021L244.368 65.6806L244.257 65.3242H256.284Z" fill="#283D4F" stroke="#283D4F" stroke-width="0.54975"></path>
<path d="M625.039 121.798C622.442 121.798 620.263 120.918 618.504 119.158C616.744 117.398 615.864 115.22 615.864 112.622C615.864 110.025 616.744 107.846 618.504 106.087C620.263 104.327 622.442 103.447 625.039 103.447C627.553 103.447 629.69 104.327 631.45 106.087C633.209 107.846 634.089 110.025 634.089 112.622C634.089 115.22 633.209 117.398 631.45 119.158C629.69 120.918 627.553 121.798 625.039 121.798Z" fill="#269497"></path>
<path d="M823.463 202.094C823.361 205.003 822.493 207.624 820.859 209.95C819.116 212.43 816.64 214.366 813.446 215.764C810.313 217.163 806.625 217.858 802.389 217.858C798.083 217.858 794.197 217.096 790.739 215.566L790.733 215.563C787.344 213.969 784.644 211.838 782.641 209.168L782.639 209.165V209.164C780.635 206.425 779.565 203.381 779.431 200.039L779.419 199.754H791.595L791.617 200.005C791.806 202.22 792.847 204.091 794.761 205.626C796.743 207.097 799.215 207.841 802.192 207.841C805.318 207.841 807.686 207.253 809.331 206.115C811.045 204.909 811.877 203.41 811.877 201.606C811.877 200.633 811.642 199.799 811.182 199.094C810.721 198.387 810.023 197.791 809.071 197.315L809.068 197.313C807.187 196.341 804.152 195.262 799.948 194.08V194.079C795.866 192.96 792.534 191.872 789.956 190.814C787.351 189.746 785.081 188.109 783.148 185.909L783.145 185.906C781.252 183.675 780.318 180.746 780.318 177.147C780.318 174.196 781.191 171.51 782.934 169.097C784.677 166.618 787.152 164.683 790.345 163.286L790.347 163.285C793.609 161.887 797.329 161.192 801.501 161.192C807.729 161.192 812.762 162.783 816.571 165.99H816.57C820.448 169.134 822.516 173.45 822.783 178.909L822.796 179.198H811.011L810.991 178.945C810.799 176.582 809.845 174.713 808.132 173.317C806.42 171.922 804.088 171.209 801.107 171.209C798.177 171.209 795.973 171.764 794.46 172.836C792.951 173.905 792.209 175.302 792.209 177.049C792.209 178.419 792.704 179.564 793.701 180.498C794.722 181.455 795.97 182.225 797.45 182.806L798.714 183.229C800.115 183.684 801.924 184.231 804.142 184.872H804.141C808.091 185.926 811.327 187.014 813.842 188.14H813.841C816.442 189.208 818.678 190.809 820.545 192.943C822.439 195.107 823.406 197.97 823.473 201.503V201.508L823.463 202.094Z" fill="#283D4F" stroke="#283D4F" stroke-width="0.54975"></path>
<path d="M762.319 148.569V162.08H775.534V171.801H762.319V201.607C762.319 203.606 762.77 204.995 763.611 205.842C764.522 206.628 766.081 207.051 768.356 207.051H775.534V216.97H766.384C761.282 216.97 757.327 215.778 754.564 213.352C751.785 210.912 750.428 206.973 750.428 201.607V171.801H744.017V162.08H750.428V148.569H762.319Z" fill="#283D4F" stroke="#283D4F" stroke-width="0.54975"></path>
<path d="M715.255 161.192C719.567 161.192 723.425 162.087 726.823 163.886L727.464 164.233C730.626 166.024 733.114 168.577 734.925 171.888C736.859 175.421 737.819 179.677 737.819 184.643V216.971H726.125V186.319C726.125 181.498 724.92 177.861 722.551 175.364L722.549 175.362C720.178 172.798 716.935 171.505 712.789 171.505C708.644 171.505 705.368 172.798 702.93 175.364C700.562 177.861 699.356 181.498 699.356 186.319V216.971H687.564V162.079H699.356V167.828C701.145 165.827 703.351 164.247 705.972 163.089L705.975 163.088C708.903 161.824 711.997 161.192 715.255 161.192Z" fill="#283D4F" stroke="#283D4F" stroke-width="0.54975"></path>
<path d="M653.301 161.192C658.471 161.192 663.088 162.319 667.144 164.58C671.2 166.841 674.36 170.034 676.62 174.154L676.828 174.536C678.95 178.504 680.007 183.059 680.007 188.193C680.007 190.243 679.875 192.099 679.609 193.76L679.573 193.991H638.117C638.49 198.131 640.066 201.449 642.836 203.967C645.674 206.547 649.156 207.841 653.301 207.841C656.287 207.841 658.817 207.216 660.903 205.98C662.988 204.745 664.647 202.89 665.876 200.399L665.952 200.246H678.633L678.514 200.607C676.904 205.502 674.014 209.555 669.849 212.763L669.442 213.07C665.112 216.268 659.726 217.858 653.301 217.858C648.065 217.858 643.35 216.698 639.164 214.372L639.159 214.369C635.039 211.977 631.783 208.654 629.392 204.404L629.39 204.399C627.064 200.08 625.906 195.103 625.906 189.475C625.906 183.85 627.031 178.906 629.291 174.652L629.292 174.65C631.616 170.333 634.841 167.007 638.964 164.68L638.966 164.679C643.154 162.352 647.935 161.192 653.301 161.192ZM652.808 171.209C648.994 171.209 645.74 172.435 643.032 174.886L643.029 174.889C640.393 177.211 638.794 180.364 638.234 184.368H667.714C667.589 180.428 666.142 177.277 663.379 174.891C660.541 172.44 657.024 171.209 652.808 171.209Z" fill="#283D4F" stroke="#283D4F" stroke-width="0.54975"></path>
<path d="M596.193 161.192C600.505 161.192 604.363 162.088 607.76 163.886L608.402 164.233C611.563 166.023 614.05 168.575 615.861 171.884C617.862 175.418 618.855 179.676 618.855 184.643V216.971H607.162V186.319C607.162 181.498 605.956 177.861 603.588 175.364L603.586 175.362C601.214 172.798 597.972 171.505 593.826 171.505C589.681 171.505 586.404 172.798 583.966 175.364C581.598 177.861 580.392 181.498 580.392 186.319V216.971H568.699V186.319C568.699 181.498 567.493 177.861 565.125 175.364L565.123 175.362C562.751 172.798 559.509 171.505 555.363 171.505C551.218 171.505 547.942 172.798 545.504 175.364C543.135 177.861 541.929 181.498 541.929 186.319V216.971H530.137V162.079H541.929V167.828C543.718 165.827 545.924 164.247 548.546 163.089C551.409 161.823 554.472 161.192 557.73 161.192C562.109 161.192 566.034 162.121 569.498 163.986C572.815 165.773 575.399 168.325 577.251 171.636C578.817 168.715 581.124 166.355 584.168 164.555L584.818 164.184C588.343 162.19 592.136 161.192 596.193 161.192Z" fill="#283D4F" stroke="#283D4F" stroke-width="0.54975"></path>
<path d="M510.068 148.569V162.08H523.283V171.801H510.068V201.607C510.068 203.606 510.519 204.995 511.36 205.842C512.271 206.628 513.83 207.051 516.105 207.051H523.283V216.97H514.133C509.031 216.97 505.077 215.778 502.313 213.352C499.534 210.912 498.177 206.973 498.177 201.607V171.801H491.767V162.08H498.177V148.569H510.068Z" fill="#283D4F" stroke="#283D4F" stroke-width="0.54975"></path>
<path d="M487.752 202.094C487.65 205.003 486.781 207.625 485.147 209.951C483.404 212.431 480.929 214.366 477.734 215.764C474.602 217.163 470.914 217.859 466.677 217.859C462.371 217.859 458.486 217.097 455.027 215.567L455.021 215.564C451.633 213.969 448.932 211.839 446.929 209.168L446.927 209.165V209.164C444.924 206.426 443.853 203.382 443.719 200.039L443.708 199.754H455.883L455.905 200.005C456.095 202.221 457.135 204.092 459.049 205.626C461.032 207.097 463.503 207.841 466.48 207.841C469.606 207.841 471.975 207.254 473.62 206.116C475.333 204.91 476.166 203.411 476.166 201.607C476.166 200.634 475.931 199.8 475.47 199.094C475.009 198.387 474.311 197.792 473.359 197.316L473.356 197.314C471.475 196.341 468.44 195.263 464.236 194.08V194.079C460.155 192.96 456.823 191.873 454.245 190.815C451.64 189.746 449.37 188.11 447.436 185.91L447.433 185.907C445.541 183.676 444.606 180.747 444.606 177.148C444.606 174.197 445.479 171.51 447.222 169.097C448.965 166.618 451.44 164.684 454.633 163.287L454.635 163.286C457.897 161.888 461.617 161.193 465.79 161.193C472.017 161.193 477.05 162.783 480.859 165.991H480.858C484.736 169.135 486.805 173.451 487.071 178.91L487.085 179.199H475.299L475.279 178.946C475.087 176.582 474.134 174.714 472.421 173.318C470.708 171.923 468.377 171.209 465.395 171.209C462.465 171.209 460.262 171.765 458.749 172.836C457.24 173.905 456.498 175.303 456.498 177.049C456.498 178.42 456.993 179.564 457.989 180.498C459.01 181.456 460.258 182.226 461.738 182.806L463.003 183.23C464.403 183.684 466.212 184.232 468.43 184.872H468.429C472.38 185.926 475.615 187.015 478.131 188.14H478.13C480.731 189.208 482.967 190.81 484.834 192.944C486.727 195.108 487.695 197.97 487.761 201.503V201.508L487.752 202.094Z" fill="#283D4F" stroke="#283D4F" stroke-width="0.54975"></path>
<path d="M412.416 161.192C417.586 161.192 422.203 162.319 426.259 164.58C430.315 166.841 433.475 170.034 435.735 174.154L435.943 174.536C438.065 178.504 439.122 183.059 439.122 188.193C439.122 190.243 438.99 192.099 438.724 193.76L438.688 193.991H397.232C397.605 198.131 399.181 201.449 401.951 203.967C404.789 206.547 408.271 207.841 412.416 207.841C415.402 207.841 417.932 207.216 420.018 205.98C422.103 204.745 423.762 202.89 424.991 200.399L425.067 200.246H437.748L437.629 200.607C436.019 205.502 433.129 209.555 428.964 212.763L428.557 213.07C424.227 216.268 418.841 217.858 412.416 217.858C407.18 217.858 402.465 216.698 398.279 214.372L398.274 214.369C394.154 211.977 390.898 208.654 388.507 204.404L388.505 204.399C386.179 200.08 385.021 195.103 385.021 189.475C385.021 183.85 386.146 178.906 388.406 174.652L388.407 174.65C390.731 170.333 393.956 167.007 398.079 164.68L398.081 164.679C402.269 162.352 407.05 161.192 412.416 161.192ZM411.923 171.209C408.109 171.209 404.855 172.435 402.147 174.886L402.144 174.889C399.508 177.211 397.909 180.364 397.349 184.368H426.829C426.704 180.428 425.257 177.277 422.494 174.891C419.657 172.44 416.139 171.209 411.923 171.209Z" fill="#283D4F" stroke="#283D4F" stroke-width="0.54975"></path>
<path d="M537.787 64.04C542.956 64.04 547.573 65.1668 551.63 67.4277C555.686 69.6884 558.845 72.8814 561.105 77.0019L561.313 77.3837C563.435 81.352 564.493 85.9068 564.493 91.0409C564.493 93.0906 564.36 94.9465 564.094 96.6073L564.058 96.8388H522.602C522.976 100.979 524.552 104.297 527.321 106.814C530.159 109.395 533.642 110.688 537.787 110.688C540.773 110.688 543.302 110.063 545.388 108.828C547.473 107.593 549.132 105.737 550.361 103.247L550.437 103.094H563.119L563 103.455C561.39 108.35 558.499 112.403 554.335 115.61L553.927 115.918C549.598 119.115 544.211 120.706 537.787 120.706C532.551 120.706 527.836 119.546 523.649 117.22L523.644 117.217C519.525 114.825 516.268 111.501 513.878 107.252L513.876 107.247C511.55 102.928 510.391 97.9503 510.391 92.3232C510.391 86.6976 511.516 81.7538 513.776 77.4999L513.777 77.498C516.102 73.1806 519.327 69.8549 523.45 67.5273L523.452 67.5263C527.64 65.1997 532.42 64.04 537.787 64.04ZM537.294 74.0566C533.48 74.0566 530.226 75.2828 527.517 77.7333L527.514 77.7363C524.879 80.0584 523.279 83.2112 522.719 87.2157H552.2C552.075 83.2753 550.627 80.1247 547.864 77.7382C545.027 75.288 541.51 74.0566 537.294 74.0566Z" fill="#283D4F" stroke="#283D4F" stroke-width="0.54975"></path>
<path d="M340.995 162.08L341.059 162.264L356.184 205.797L371.31 162.264L371.373 162.08H383.902L383.759 162.452L363.049 216.793L362.981 216.97H349.19L349.122 216.792L328.51 162.452L328.369 162.08H340.995Z" fill="#283D4F" stroke="#283D4F" stroke-width="0.54975"></path>
<path d="M301.505 161.192C305.817 161.192 309.675 162.087 313.073 163.886L313.714 164.233C316.876 166.024 319.364 168.577 321.175 171.888C323.109 175.421 324.069 179.677 324.069 184.643V216.971H312.375V186.319C312.375 181.498 311.17 177.861 308.801 175.364L308.799 175.362C306.428 172.798 303.185 171.505 299.039 171.505C294.894 171.505 291.618 172.798 289.18 175.364C286.812 177.861 285.606 181.498 285.606 186.319V216.971H273.814V162.079H285.606V167.828C287.395 165.827 289.601 164.247 292.222 163.089L292.225 163.088C295.153 161.824 298.247 161.192 301.505 161.192Z" fill="#283D4F" stroke="#283D4F" stroke-width="0.54975"></path>
<path d="M262.561 162.079V216.971H250.768V162.079H262.561ZM256.763 140.482C258.808 140.482 260.555 141.2 261.988 142.633C263.422 144.068 264.139 145.848 264.139 147.955C264.139 150.063 263.423 151.844 261.988 153.278C260.555 154.711 258.808 155.43 256.763 155.43C254.656 155.43 252.876 154.713 251.441 153.278C250.006 151.844 249.29 150.063 249.29 147.955C249.29 145.848 250.006 144.068 251.441 142.633C252.876 141.198 254.656 140.482 256.763 140.482Z" fill="#283D4F" stroke="#283D4F" stroke-width="0.54975"></path>
</svg>