<svg xmlns="http://www.w3.org/2000/svg" viewBox="0 0 122.31 122.31" width="512" height="512" role="img" aria-label="Whiskey Investments">
  <rect width="122.31" height="122.31" rx="24" fill="#283D4F"/>
  <g transform="translate(11.268,0)">
    <g transform="translate(55.799 60.868)"><path d="M 11.475 32.38 L 43.975 0 L 0 0 L 0 30.164 L 2.479 32.38 L 11.475 32.38 Z" fill="#FFFFFF" fill-rule="nonzero"/></g>
    <g transform="translate(67.678 4.342)"><path d="M 0 13.841 L 22.587 13.841 C 19.435 6.986 16.344 2.2 14.814 0 L 0 13.841 Z" fill="#269497" fill-rule="nonzero"/></g>
    <g transform="translate(9.122 0)"><path d="M 73.37 4.342 C 73.002 3.816 72.726 3.435 72.559 3.211 C 72.445 3.057 72.278 2.95 72.09 2.911 C 41.613 -3.366 11.999 2.356 8.612 3.052 C 8.407 3.094 8.227 3.219 8.112 3.394 C 4.895 8.362 2.216 13.299 0 18.181 L 58.556 18.181 L 73.37 4.34 L 73.37 4.342 Z" fill="#62D4C5" fill-rule="nonzero"/></g>
    <g transform="translate(38.35 103.549)"><path d="M 28.267 0.003 L 18.63 0.003 L 0 18.518 C 21.776 19.678 40.166 16.339 42.822 15.825 C 43.034 15.783 43.216 15.658 43.333 15.478 L 28.267 0 L 28.267 0.003 Z" fill="#624DEF" fill-rule="nonzero"/></g>
    <g transform="translate(66.614 103.549)"><path d="M 15.067 15.478 C 18.437 10.236 21.247 5.07 23.57 0 L 0 0 L 15.067 15.478 Z" fill="#887BF3" fill-rule="nonzero"/></g>
    <g transform="translate(9.077 103.552)"><path d="M 47.903 0 L 0 0 C 3.701 8.771 7.314 14.381 8.154 15.637 C 8.268 15.809 8.448 15.929 8.652 15.971 C 15.606 17.384 22.6 18.161 29.273 18.515 L 47.903 0 Z" fill="#355169" fill-rule="nonzero"/></g>
    <g transform="translate(55.604 28.488)"><path d="M 0.196 32.38 L 44.17 32.38 C 44.17 19.962 41.795 8.975 38.759 0 L 0 0 L 0.196 32.38 Z" fill="#269497" fill-rule="nonzero"/></g>
    <g transform="translate(26.631 28.488)"><path d="M 0.021 29.695 L 0 32.38 L 29.169 32.38 L 28.973 0 L 0.021 29.695 Z" fill="#62D4C5" fill-rule="nonzero"/></g>
    <g transform="translate(26.651 28.488)"><path d="M 28.952 0 L 2.007 0 L 0.735 14.947 C 0.318 19.847 0.073 24.771 0 29.695 L 28.95 0 L 28.952 0 Z" fill="#FF794E" fill-rule="nonzero"/></g>
    <g transform="translate(67.274 60.868)"><path d="M 0 32.38 L 27.034 32.38 C 30.975 20.864 32.5 9.971 32.5 0 L 0 32.38 Z" fill="#624DEF" fill-rule="nonzero"/></g>
    <g transform="translate(55.799 91.032)"><path d="M 0 0 L 0 2.216 L 2.479 2.216 L 0 0 Z" fill="#62D4C5" fill-rule="nonzero"/></g>
    <g transform="translate(26.631 60.868)"><path d="M 29.169 30.164 L 29.169 0 L 0 0 C 0 0.962 0.003 1.924 0.013 2.886 L 29.169 30.167 L 29.169 30.164 Z" fill="#269497" fill-rule="nonzero"/></g>
    <g transform="translate(26.644 63.754)"><path d="M 0 0 C 0.063 5.393 0.334 10.784 0.811 16.146 L 1.997 29.494 L 29.158 29.494 L 29.158 27.281 L 0.003 0 L 0 0 Z" fill="#62D4C5" fill-rule="nonzero"/></g>
    <g transform="translate(0 28.488)"><path d="M 19.061 32.38 C 19.071 26.559 19.324 20.739 19.817 14.947 L 21.089 0 L 5.084 0 C 1.32 11.365 -0.08 22.29 0.003 32.38 L 19.061 32.38 Z" fill="#FF794E" fill-rule="nonzero"/></g>
    <g transform="translate(0.003 60.868)"><path d="M 0 0 C 0.102 12.257 2.388 23.285 5.273 32.38 L 21.067 32.38 L 19.881 19.031 C 19.321 12.71 19.044 6.355 19.057 0 L 0 0 Z" fill="#33B6B1" fill-rule="nonzero"/></g>
    <g transform="translate(61.946 93.248)"><path d="M 0 5.331 L 5.325 0 L 32.359 0 C 32.359 0 30.102 6.425 28.238 10.304 L 4.669 10.304 L 0 5.331 Z" fill="#887BF3" fill-rule="nonzero"/></g>
    <g transform="translate(56.98 98.579)"><path d="M 9.637 4.974 L 0 4.974 L 4.966 0 L 9.637 4.974 Z" fill="#624DEF" fill-rule="nonzero"/></g>
  </g>
</svg>
